<?xml version="1.0" encoding="UTF-8" standalone="no"?>
<!-- Created with Inkscape (http://www.inkscape.org/) -->

<svg
   width="352.52499mm"
   height="147.7375mm"
   viewBox="0 0 352.52499 147.7375"
   version="1.1"
   id="svg1"
   inkscape:version="1.3.2 (091e20e, 2023-11-25, custom)"
   sodipodi:docname="bottom v01.svg"
   xmlns:inkscape="http://www.inkscape.org/namespaces/inkscape"
   xmlns:sodipodi="http://sodipodi.sourceforge.net/DTD/sodipodi-0.dtd"
   xmlns="http://www.w3.org/2000/svg"
   xmlns:svg="http://www.w3.org/2000/svg">
  <sodipodi:namedview
     id="namedview1"
     pagecolor="#ffffff"
     bordercolor="#000000"
     borderopacity="0.25"
     inkscape:showpageshadow="2"
     inkscape:pageopacity="0.0"
     inkscape:pagecheckerboard="0"
     inkscape:deskcolor="#d1d1d1"
     inkscape:document-units="mm"
     inkscape:zoom="2.0686841"
     inkscape:cx="73.476659"
     inkscape:cy="414.99811"
     inkscape:window-width="1920"
     inkscape:window-height="1017"
     inkscape:window-x="-8"
     inkscape:window-y="-8"
     inkscape:window-maximized="1"
     inkscape:current-layer="layer1" />
  <defs
     id="defs1" />
  <g
     inkscape:label="Layer 1"
     inkscape:groupmode="layer"
     id="layer1"
     transform="translate(71.437496,-74.612484)">
    <path
       fill="none"
       stroke-width="0.003"
       stroke-linecap="round"
       stroke-linejoin="round"
       stroke="#0000ff"
       stroke-opacity="1"
       stroke-miterlimit="10"
       d="m -71.387466,79.424944 0.0179,-0.41341 0.0551,-0.41341 0.0896,-0.40515 0.1254,-0.39549 0.15848,-0.3831 0.19154,-0.37207 0.22325,-0.34727 0.25356,-0.33072 0.27974,-0.30731 0.3073,-0.27836 0.32935,-0.25494 0.35002,-0.22324 0.36932,-0.19017 0.38309,-0.15985 0.39688,-0.1254 0.40514,-0.0909 0.41203,-0.0538 0.41479,-0.0179 H 276.27503 l 0.41341,0.0179 0.41479,0.0538 0.40377,0.0909 0.39687,0.1254 0.38309,0.15985 0.36794,0.19017 0.3514,0.22324 0.32935,0.25494 0.3073,0.27836 0.27974,0.30731 0.25356,0.33072 0.22462,0.34727 0.19017,0.37207 0.15986,0.3831 0.12402,0.39549 0.091,0.40515 0.0537,0.41341 0.0179,0.41341 V 217.53744 l -0.0179,0.41617 -0.0537,0.41203 -0.091,0.40514 -0.12402,0.3955 -0.15986,0.38447 -0.19017,0.36794 -0.22462,0.3514 -0.25356,0.32935 -0.27974,0.30592 -0.3073,0.28113 -0.32935,0.25217 -0.3514,0.22325 -0.36794,0.19292 -0.38309,0.15848 -0.39687,0.1254 -0.40377,0.0896 -0.41479,0.0538 -0.41341,0.0179 h -66.675 l -0.41341,-0.0179 -0.41479,-0.0538 -0.40377,-0.0896 -0.39549,-0.1254 -0.38448,-0.15848 -0.36793,-0.19292 -0.35002,-0.22325 -0.33073,-0.25217 -0.30731,-0.28113 -0.27974,-0.30592 -0.25355,-0.32935 -0.22325,-0.3514 -0.19017,-0.36794 -0.16123,-0.38447 -0.12402,-0.3955 -0.0909,-0.40514 -0.0537,-0.41203 -0.0179,-0.41617 -0.0179,-0.41479 -0.0538,-0.41203 -0.0909,-0.40515 -0.12402,-0.39687 -0.15986,-0.3831 -0.19017,-0.36931 -0.22462,-0.35002 -0.25355,-0.32935 -0.27975,-0.30593 -0.3073,-0.28112 -0.32935,-0.25218 -0.3514,-0.22324 -0.36794,-0.19293 -0.38309,-0.15847 -0.39687,-0.1254 -0.40377,-0.0896 -0.41341,-0.0537 -0.41479,-0.0193 H -66.624976 l -0.41479,-0.0179 -0.41203,-0.0538 -0.40515,-0.0896 -0.39687,-0.1254 -0.3831,-0.15848 -0.36931,-0.19292 -0.35002,-0.22325 -0.32935,-0.25217 -0.30731,-0.28113 -0.27974,-0.30592 -0.25356,-0.32935 -0.22324,-0.3514 -0.19155,-0.36794 -0.15847,-0.38447 -0.1254,-0.3955 -0.0896,-0.40514 -0.0551,-0.41203 -0.0179,-0.41616 z m 0,0"
       id="path2"
       style="stroke-width:0.1;stroke-dasharray:none" />
    <path
       fill="none"
       stroke-width="0.003"
       stroke-linecap="round"
       stroke-linejoin="round"
       stroke="#ff0000"
       stroke-opacity="1"
       stroke-miterlimit="10"
       d="m -67.342926,207.6321 c 0,-0.60771 0.49196,-1.09967 1.09968,-1.09967 0.60634,0 1.09967,0.49196 1.09967,1.09967 0,0.60634 -0.49333,1.09967 -1.09967,1.09967 -0.60772,0 -1.09968,-0.49333 -1.09968,-1.09967 z m 0,0"
       id="path29"
       style="stroke-width:0.1;stroke-dasharray:none" />
    <path
       fill="none"
       stroke-width="0.003"
       stroke-linecap="round"
       stroke-linejoin="round"
       stroke="#ff0000"
       stroke-opacity="1"
       stroke-miterlimit="10"
       d="m 160.08161,207.6321 c 0,-0.60771 0.49334,-1.09967 1.09968,-1.09967 0.60771,0 1.10105,0.49196 1.10105,1.09967 0,0.60634 -0.49334,1.09967 -1.10105,1.09967 -0.60634,0 -1.09968,-0.49333 -1.09968,-1.09967 z m 0,0"
       id="path30"
       style="stroke-width:0.1;stroke-dasharray:none" />
    <path
       fill="none"
       stroke-width="0.003"
       stroke-linecap="round"
       stroke-linejoin="round"
       stroke="#ff0000"
       stroke-opacity="1"
       stroke-miterlimit="10"
       d="m 47.369114,207.6321 c 0,-0.60771 0.49333,-1.09967 1.09967,-1.09967 0.60771,0 1.10105,0.49196 1.10105,1.09967 0,0.60634 -0.49334,1.09967 -1.10105,1.09967 -0.60634,0 -1.09967,-0.49333 -1.09967,-1.09967 z m 0,0"
       id="path31"
       style="stroke-width:0.1;stroke-dasharray:none" />
    <path
       fill="none"
       stroke-width="0.003"
       stroke-linecap="round"
       stroke-linejoin="round"
       stroke="#ff0000"
       stroke-opacity="1"
       stroke-miterlimit="10"
       d="m 47.369114,79.806654 c 0,-0.60771 0.49333,-1.09967 1.09967,-1.09967 0.60771,0 1.10105,0.49196 1.10105,1.09967 0,0.60772 -0.49334,1.09968 -1.10105,1.09968 -0.60634,0 -1.09967,-0.49196 -1.09967,-1.09968 z m 0,0"
       id="path32"
       style="stroke-width:0.1;stroke-dasharray:none" />
    <path
       fill="none"
       stroke-width="0.003"
       stroke-linecap="round"
       stroke-linejoin="round"
       stroke="#ff0000"
       stroke-opacity="1"
       stroke-miterlimit="10"
       d="m -67.342922,79.806654 c 0,-0.607709 0.492037,-1.099666 1.099851,-1.099666 0.606434,0 1.099842,0.491957 1.099842,1.099666 0,0.607718 -0.493408,1.099676 -1.099842,1.099676 -0.607814,0 -1.099851,-0.491958 -1.099851,-1.099676 z m 0,0"
       id="path33"
       style="stroke-width:0.100008;stroke-dasharray:none" />
    <path
       fill="none"
       stroke-width="0.003"
       stroke-linecap="round"
       stroke-linejoin="round"
       stroke="#ff0000"
       stroke-opacity="1"
       stroke-miterlimit="10"
       d="m 274.79502,217.1571 c 0,-0.60772 0.49196,-1.09968 1.09967,-1.09968 0.60634,0 1.09968,0.49196 1.09968,1.09968 0,0.60634 -0.49334,1.09967 -1.09968,1.09967 -0.60771,0 -1.09967,-0.49333 -1.09967,-1.09967 z m 0,0"
       id="path34"
       style="stroke-width:0.1;stroke-dasharray:none" />
    <path
       fill="none"
       stroke-width="0.003"
       stroke-linecap="round"
       stroke-linejoin="round"
       stroke="#ff0000"
       stroke-opacity="1"
       stroke-miterlimit="10"
       d="m 274.79502,79.806654 c 0,-0.60771 0.49196,-1.09967 1.09967,-1.09967 0.60634,0 1.09968,0.49196 1.09968,1.09967 0,0.60772 -0.49334,1.09968 -1.09968,1.09968 -0.60771,0 -1.09967,-0.49196 -1.09967,-1.09968 z m 0,0"
       id="path35"
       style="stroke-width:0.1;stroke-dasharray:none" />
    <path
       fill="none"
       stroke-width="0.003"
       stroke-linecap="round"
       stroke-linejoin="round"
       stroke="#ff0000"
       stroke-opacity="1"
       stroke-miterlimit="10"
       d="m 160.08161,79.806654 c 0,-0.60771 0.49334,-1.09967 1.09968,-1.09967 0.60771,0 1.10105,0.49196 1.10105,1.09967 0,0.60772 -0.49334,1.09968 -1.10105,1.09968 -0.60634,0 -1.09968,-0.49196 -1.09968,-1.09968 z m 0,0"
       id="path36"
       style="stroke-width:0.1;stroke-dasharray:none" />
    <path
       fill="none"
       stroke-width="0.003"
       stroke-linecap="round"
       stroke-linejoin="round"
       stroke="#ff0000"
       stroke-opacity="1"
       stroke-miterlimit="10"
       d="m 229.54989,79.806654 c 0,-0.60771 0.49196,-1.09967 1.09968,-1.09967 0.60633,0 1.09967,0.49196 1.09967,1.09967 0,0.60772 -0.49334,1.09968 -1.09967,1.09968 -0.60772,0 -1.09968,-0.49196 -1.09968,-1.09968 z m 0,0"
       id="path37"
       style="stroke-width:0.1;stroke-dasharray:none" />
    <path
       fill="none"
       stroke-width="0.003"
       stroke-linecap="round"
       stroke-linejoin="round"
       stroke="#ff0000"
       stroke-opacity="1"
       stroke-miterlimit="10"
       d="m 229.54989,123.64894 c 0,-0.60634 0.49196,-1.09967 1.09968,-1.09967 0.60633,0 1.09967,0.49333 1.09967,1.09967 0,0.60771 -0.49334,1.10105 -1.09967,1.10105 -0.60772,0 -1.09968,-0.49334 -1.09968,-1.10105 z m 0,0"
       id="path38"
       style="stroke-width:0.1;stroke-dasharray:none" />
    <path
       fill="none"
       stroke-width="0.003"
       stroke-linecap="round"
       stroke-linejoin="round"
       stroke="#ff0000"
       stroke-opacity="1"
       stroke-miterlimit="10"
       d="m 274.79502,123.64894 c 0,-0.60634 0.49196,-1.09967 1.09967,-1.09967 0.60634,0 1.09968,0.49333 1.09968,1.09967 0,0.60771 -0.49334,1.10105 -1.09968,1.10105 -0.60771,0 -1.09967,-0.49334 -1.09967,-1.10105 z m 0,0"
       id="path39"
       style="stroke-width:0.1;stroke-dasharray:none" />
    <circle
       style="fill:none;stroke:#000000;stroke-width:0.1;stroke-linecap:square;stroke-dasharray:none;stroke-opacity:1;paint-order:stroke markers fill"
       id="path1"
       cx="-66.243073"
       cy="79.806656"
       r="1.55" />
    <circle
       style="fill:none;stroke:#000000;stroke-width:0.1;stroke-linecap:square;stroke-dasharray:none;stroke-opacity:1;paint-order:stroke markers fill"
       id="path1-7"
       cx="-66.243248"
       cy="207.6321"
       r="1.55" />
    <circle
       style="fill:none;stroke:#000000;stroke-width:0.1;stroke-linecap:square;stroke-dasharray:none;stroke-opacity:1;paint-order:stroke markers fill"
       id="path1-3"
       cx="48.469475"
       cy="207.6321"
       r="1.55" />
    <circle
       style="fill:none;stroke:#000000;stroke-width:0.1;stroke-linecap:square;stroke-dasharray:none;stroke-opacity:1;paint-order:stroke markers fill"
       id="path1-9"
       cx="161.18198"
       cy="207.6321"
       r="1.55" />
    <circle
       style="fill:none;stroke:#000000;stroke-width:0.1;stroke-linecap:square;stroke-dasharray:none;stroke-opacity:1;paint-order:stroke markers fill"
       id="path1-75"
       cx="275.89468"
       cy="217.15709"
       r="1.55" />
    <circle
       style="fill:none;stroke:#000000;stroke-width:0.1;stroke-linecap:square;stroke-dasharray:none;stroke-opacity:1;paint-order:stroke markers fill"
       id="path1-0"
       cx="275.89468"
       cy="123.64963"
       r="1.55" />
    <circle
       style="fill:none;stroke:#000000;stroke-width:0.1;stroke-linecap:square;stroke-dasharray:none;stroke-opacity:1;paint-order:stroke markers fill"
       id="path1-78"
       cx="230.64957"
       cy="123.64963"
       r="1.55" />
    <circle
       style="fill:none;stroke:#000000;stroke-width:0.1;stroke-linecap:square;stroke-dasharray:none;stroke-opacity:1;paint-order:stroke markers fill"
       id="path1-4"
       cx="230.64957"
       cy="79.806656"
       r="1.55" />
    <circle
       style="fill:none;stroke:#000000;stroke-width:0.1;stroke-linecap:square;stroke-dasharray:none;stroke-opacity:1;paint-order:stroke markers fill"
       id="path1-1"
       cx="275.89468"
       cy="79.806656"
       r="1.55" />
    <circle
       style="fill:none;stroke:#000000;stroke-width:0.1;stroke-linecap:square;stroke-dasharray:none;stroke-opacity:1;paint-order:stroke markers fill"
       id="path1-19"
       cx="161.18198"
       cy="79.806656"
       r="1.55" />
    <circle
       style="fill:none;stroke:#000000;stroke-width:0.1;stroke-linecap:square;stroke-dasharray:none;stroke-opacity:1;paint-order:stroke markers fill"
       id="path1-35"
       cx="48.469475"
       cy="79.806656"
       r="1.55" />
  </g>
</svg>
