<?xml version="1.0" encoding="UTF-8" standalone="no"?>
<!-- Created with Inkscape (http://www.inkscape.org/) -->

<svg
   width="53.487942mm"
   height="52.087818mm"
   viewBox="0 0 53.487942 52.087818"
   version="1.1"
   id="svg1"
   inkscape:version="1.3.2 (091e20e, 2023-11-25, custom)"
   sodipodi:docname="mcu taito v1.svg"
   xml:space="preserve"
   xmlns:inkscape="http://www.inkscape.org/namespaces/inkscape"
   xmlns:sodipodi="http://sodipodi.sourceforge.net/DTD/sodipodi-0.dtd"
   xmlns="http://www.w3.org/2000/svg"
   xmlns:svg="http://www.w3.org/2000/svg"><sodipodi:namedview
     id="namedview1"
     pagecolor="#ffffff"
     bordercolor="#000000"
     borderopacity="0.25"
     inkscape:showpageshadow="2"
     inkscape:pageopacity="0.0"
     inkscape:pagecheckerboard="0"
     inkscape:deskcolor="#d1d1d1"
     inkscape:document-units="mm"
     inkscape:zoom="11.313708"
     inkscape:cx="92.763572"
     inkscape:cy="172.57825"
     inkscape:window-width="1920"
     inkscape:window-height="1017"
     inkscape:window-x="-8"
     inkscape:window-y="-8"
     inkscape:window-maximized="1"
     inkscape:current-layer="layer1" /><defs
     id="defs1" /><g
     inkscape:label="Layer 1"
     inkscape:groupmode="layer"
     id="layer1"
     transform="translate(-78.052089,-122.50215)"><path
       fill="none"
       stroke-width="0.003"
       stroke-linecap="round"
       stroke-linejoin="round"
       stroke="#0000ff"
       stroke-opacity="1"
       stroke-miterlimit="10"
       d="m 82.864588,174.53997 h 43.862952 l 0.41342,-0.0179 0.41478,-0.0537 0.40377,-0.0896 0.39549,-0.1254 0.38448,-0.15848 0.37069,-0.19292 0.34727,-0.22325 0.33072,-0.25218 0.30731,-0.28112 0.27974,-0.30592 0.25356,-0.32935 0.22324,-0.3514 0.19017,-0.36794 0.16123,-0.38447 0.12402,-0.3955 0.091,-0.40652 0.0537,-0.41203 0.0179,-0.41479 v -42.46286 l -0.0179,-0.41341 -0.0537,-0.41204 -0.091,-0.40652 -0.12402,-0.3955 -0.16123,-0.38447 -0.19017,-0.36793 -0.22324,-0.35003 -0.25356,-0.33073 -0.27974,-0.3073 -0.30731,-0.27974 -0.33072,-0.25356 -0.34727,-0.22324 -0.37069,-0.19017 -0.38448,-0.16123 -0.39549,-0.12402 -0.40377,-0.0896 -0.41478,-0.0551 -0.41342,-0.0179 H 82.482874 l -0.406521,0.0537 -0.4079,0.0868 -0.398253,0.12402 -0.38585,0.1571 -0.370693,0.19017 -0.352778,0.22186 -0.332107,0.25356 -0.30868,0.27974 -0.283876,0.30455 -0.254937,0.33073 -0.225999,0.35002 -0.194303,0.36794 -0.16123,0.38585 -0.128158,0.39687 -0.09233,0.40652 -0.0565,0.41066 -0.02067,0.41755 v 42.55106 c -0.124414,5.18936 4.762499,4.69912 4.762499,4.69912 z"
       id="path4"
       style="stroke-width:0.1;stroke-dasharray:none"
       sodipodi:nodetypes="ccccccccccccccccccccccccccccccccccccccccccccccccccccccccccc" /><path
       fill="none"
       stroke-width="0.003"
       stroke-linecap="round"
       stroke-linejoin="round"
       stroke="#ff0000"
       stroke-opacity="1"
       stroke-miterlimit="10"
       d="m 91.040488,164.84132 0.0028,-0.0882 0.0124,-0.0854 0.01791,-0.0854 0.02618,-0.0827 0.03445,-0.0813 0.03858,-0.0772 0.04823,-0.0744 0.05374,-0.0689 0.05788,-0.0648 0.06339,-0.0579 0.07166,-0.0537 0.07304,-0.0469 0.07579,-0.04 0.08268,-0.0331 0.07993,-0.0262 0.08682,-0.0193 0.08682,-0.011 0.08682,-0.004 h 3.75102 l 0.08819,0.004 0.08682,0.011 0.08406,0.0193 0.08406,0.0262 0.08131,0.0344 0.07579,0.04 0.07304,0.0469 0.0689,0.0524 0.06615,0.0593 0.05788,0.0648 0.05374,0.0689 0.04548,0.0744 0.04134,0.0772 0.03307,0.0813 0.0248,0.0827 0.02067,0.0854 0.0096,0.0868 0.0028,0.0854 -0.0028,0.0854 -0.0096,0.0854 -0.02067,0.0854 -0.0248,0.0841 -0.03307,0.0799 -0.04134,0.0772 -0.04548,0.0744 -0.05374,0.0689 -0.05788,0.0648 -0.06615,0.0593 -0.0689,0.0524 -0.07304,0.0469 -0.07579,0.0413 -0.08131,0.0331 -0.08406,0.0262 -0.08406,0.0193 -0.08682,0.011 -0.08819,0.004 h -3.75102 l -0.08682,-0.003 -0.08682,-0.0124 -0.08682,-0.0179 -0.07993,-0.0262 -0.08268,-0.0344 -0.07579,-0.04 -0.07304,-0.0469 -0.07166,-0.0537 -0.06339,-0.0579 -0.05788,-0.0648 -0.05374,-0.0689 -0.04823,-0.073 -0.03858,-0.0786 -0.03445,-0.0799 -0.02618,-0.0827 -0.01791,-0.0854 -0.0124,-0.0868 z m 0,0"
       id="path19"
       style="stroke-width:0.1;stroke-dasharray:none" /><path
       id="path2"
       style="opacity:0.748727;fill:none;fill-opacity:1;stroke:#000000;stroke-width:0.101873;stroke-linecap:square;paint-order:stroke markers fill;stroke-opacity:1"
       d="M 105.80182 137.62061 L 105.80182 143.17272 A 5.5 5.5 0 0 1 109.8486 146.54616 L 99.645086 146.54616 A 5.5 5.5 0 0 1 103.80142 143.15877 L 103.80142 137.62216 A 11 11 0 0 0 93.867661 147.5461 L 99.34743 147.5461 L 110.14264 147.5461 L 110.90228 147.5461 L 115.74901 147.5461 A 11 11 0 0 0 105.80182 137.62061 z M 93.867661 149.54598 A 11 11 0 0 0 104.79619 159.54588 A 11 11 0 0 0 115.72421 149.54598 L 110.62891 149.54598 L 110.14109 149.54598 L 109.85583 150.54592 A 5.5 5.5 0 0 1 104.73935 154.06922 A 5.5 5.5 0 0 1 99.622865 150.54592 L 99.337611 149.54598 L 93.867661 149.54598 z M 100.336 149.54598 L 100.6228 150.54592 L 108.85538 150.54592 L 109.14063 149.54598 L 100.336 149.54598 z " /><path
       style="opacity:0.748727;fill:#76c342;fill-opacity:1;stroke:none;stroke-width:0.1;stroke-linecap:square;paint-order:stroke markers fill"
       d="M 99.337611,149.54598 H 100.3361"
       id="path5" /><path
       style="opacity:0.748727;fill:none;stroke:#000000;stroke-width:0.1;stroke-linecap:square;stroke-opacity:1;paint-order:stroke markers fill"
       d="m 88.514381,138.37418 c 11.241932,-0.15091 15.762219,-9.05042 15.762219,-9.05042 -7.296457,6.99244 -15.762219,9.05042 -15.762219,9.05042 z"
       id="path1"
       sodipodi:nodetypes="ccc" /><path
       style="opacity:0.748727;fill:none;stroke:#000000;stroke-width:0.1;stroke-linecap:square;stroke-opacity:1;paint-order:stroke markers fill"
       d="m 121.13685,138.37418 c -11.24194,-0.15091 -15.76222,-9.05042 -15.76222,-9.05042 7.29645,6.99244 15.76222,9.05042 15.76222,9.05042 z"
       id="path1-9"
       sodipodi:nodetypes="ccc" /><path
       style="opacity:0.748727;fill:none;stroke:#000000;stroke-width:0.1;stroke-linecap:square;stroke-opacity:1;paint-order:stroke markers fill"
       d="m 88.486595,158.71699 c 11.241928,0.15091 15.762225,9.05042 15.762225,9.05042 -7.296465,-6.99244 -15.762225,-9.05042 -15.762225,-9.05042 z"
       id="path1-6"
       sodipodi:nodetypes="ccc" /><path
       style="opacity:0.748727;fill:none;stroke:#000000;stroke-width:0.1;stroke-linecap:square;stroke-opacity:1;paint-order:stroke markers fill"
       d="m 121.09946,158.71699 c -11.24194,0.15091 -15.76222,9.05042 -15.76222,9.05042 7.29645,-6.99244 15.76222,-9.05042 15.76222,-9.05042 z"
       id="path1-7"
       sodipodi:nodetypes="ccc" /><path
       style="opacity:0.748727;fill:none;stroke:#000000;stroke-width:0.1;stroke-linecap:square;stroke-opacity:1;paint-order:stroke markers fill"
       d="m 87.942297,157.64905 c 5.518835,-9.79523 0.09616,-18.1755 0.09616,-18.1755 2.378804,9.82211 -0.09616,18.1755 -0.09616,18.1755 z"
       id="path1-0"
       sodipodi:nodetypes="ccc" /><path
       style="opacity:0.748727;fill:none;stroke:#000000;stroke-width:0.1;stroke-linecap:square;stroke-opacity:1;paint-order:stroke markers fill"
       d="m 121.5946,157.64905 c -5.51883,-9.79523 -0.0961,-18.1755 -0.0961,-18.1755 -2.37881,9.82211 0.0961,18.1755 0.0961,18.1755 z"
       id="path1-0-7"
       sodipodi:nodetypes="ccc" /><circle
       style="opacity:0.748727;fill:none;stroke:#000000;stroke-width:0.1;stroke-linecap:square;paint-order:stroke markers fill"
       id="path3"
       cx="81.102081"
       cy="127.69562"
       r="1.5999023" /><circle
       style="opacity:0.748727;fill:none;stroke:#000000;stroke-width:0.1;stroke-linecap:square;paint-order:stroke markers fill"
       id="path3-9"
       cx="126.34583"
       cy="127.69562"
       r="1.5999023" /><circle
       style="opacity:0.748727;fill:none;stroke:#000000;stroke-width:0.1;stroke-linecap:square;paint-order:stroke markers fill"
       id="path3-3"
       cx="126.34583"
       cy="171.54065"
       r="1.5999023" /><circle
       style="opacity:0.748727;fill:none;stroke:#000000;stroke-width:0.1;stroke-linecap:square;paint-order:stroke markers fill"
       id="path3-2"
       cx="81.102081"
       cy="171.54065"
       r="1.5999023" /></g></svg>
